<?xml version="1.0" encoding="UTF-8"?>
<svg id="Layer_2" data-name="Layer 2" xmlns="http://www.w3.org/2000/svg" viewBox="0 0 90.89 14.02">
  <defs>
    <style>
      .cls-1, .cls-2, .cls-3 {
        stroke-width: 0px;
      }

      .cls-2 {
        fill: #1c39bb;
      }

      .cls-3 {
        fill: #c33;
      }
    </style>
  </defs>
  <g id="Layer_1-2" data-name="Layer 1">
    <g>
      <g>
        <path class="cls-1" d="M28.17,10.22c0,1.15-.41,2.08-1.26,2.77s-1.9,1.02-3.1,1.02c-1.1,0-2.05-.31-2.89-.95-.82-.64-1.41-1.51-1.72-2.61l1.61-.64c.1.38.26.74.46,1.05.18.33.41.59.69.82.26.23.54.41.87.54.31.13.64.18,1,.18.77,0,1.41-.2,1.9-.59.49-.41.72-.92.72-1.59,0-.54-.2-1.02-.59-1.41-.38-.38-1.1-.74-2.13-1.1-1.05-.38-1.72-.64-1.97-.77-1.38-.72-2.08-1.74-2.08-3.13,0-.97.38-1.79,1.15-2.48.77-.67,1.74-1.02,2.87-1.02,1,0,1.87.26,2.61.77.72.51,1.2,1.13,1.46,1.9l-1.59.67c-.15-.49-.44-.9-.87-1.23s-.95-.49-1.59-.49-1.2.18-1.67.56c-.44.33-.67.77-.67,1.33,0,.44.18.85.54,1.18.38.31,1.23.72,2.54,1.15,1.33.46,2.28,1.02,2.84,1.67.56.67.85,1.46.85,2.41Z"/>
        <path class="cls-1" d="M35.78.62h-1.9l-4.94,13.12h1.87l1.28-3.56h5.51l1.26,3.56h1.87L35.78.62ZM32.66,8.58l2.15-5.92h.05l2.15,5.92h-4.36Z"/>
        <polygon class="cls-1" points="49.21 .62 49.21 2.23 45.54 2.23 45.54 13.73 43.88 13.73 43.88 2.23 40.21 2.23 40.21 .62 49.21 .62"/>
        <path class="cls-1" d="M57.69,8.43l-.28-.51c.05-.03.1-.05.15-.08.08-.05.18-.1.28-.18.15-.1.31-.2.46-.33.13-.13.28-.28.41-.44.59-.69.9-1.49.9-2.41,0-1.08-.41-2.02-1.2-2.77-.79-.74-1.77-1.13-2.92-1.13h-4.46v13.12h1.69v-5.3h1.87c.46,0,.82-.03,1.15-.05l2.89,5.41h2v-.1c-.15-.28-2.79-4.94-2.95-5.23ZM55.43,6.82h-2.72V2.21h2.82c.67,0,1.23.23,1.67.69.46.46.67,1,.67,1.59,0,.67-.23,1.23-.69,1.67-.49.46-1.08.67-1.74.67Z"/>
        <rect class="cls-1" x="63.12" y="3.62" width="1.69" height="10.12"/>
        <polygon class="cls-1" points="77.57 .62 77.57 13.73 75.8 13.73 69.14 3.03 69.06 3.03 69.14 5.56 69.14 13.73 67.45 13.73 67.45 .62 69.5 .62 75.87 10.81 75.95 10.81 75.87 8.28 75.87 .62 77.57 .62"/>
        <path class="cls-1" d="M85.94.62h-1.9l-4.94,13.12h1.87l1.28-3.56h5.51l1.26,3.56h1.87l-4.94-13.12ZM82.82,8.58l2.15-5.92h.05l2.15,5.92h-4.36Z"/>
      </g>
      <path class="cls-3" d="M60.93,2.75c.57-.51,1.09-.97,1.62-1.43.23-.2.45-.41.68-.61.56-.48,1.24-.48,1.7-.01.35.35.46.78.29,1.25-.17.47-.51.78-1,.79-1.07.03-2.15.01-3.29.01Z"/>
    </g>
    <g>
      <path class="cls-2" d="M14.5.13c-.47.42-.92.81-1.37,1.21-2.03,1.8-4.05,3.62-6.09,5.41-1.35,1.18-2.87,1.72-4.63.92C.68,6.89-.22,5.08.15,3.16.47,1.47,2.03.07,3.88.04,7.35-.03,10.83.02,14.3.02c.04,0,.07.04.2.12Z"/>
      <path class="cls-3" d="M0,13.61c1.9-1.68,3.64-3.23,5.39-4.78.76-.67,1.5-1.37,2.27-2.02,1.87-1.59,4.13-1.61,5.68-.04,1.16,1.18,1.53,2.59.97,4.16-.55,1.57-1.71,2.6-3.35,2.65-3.58.11-7.16.03-10.96.03Z"/>
    </g>
  </g>
</svg>